Coordinates
version=1
nRows=21
nColumns=19
inDegrees=yes

Units are S.I. units (second, meters, Newtons, ...)
If the header above contains a line with 'inDegrees', this indicates whether rotational values are in degrees (yes) or radians (no).

endheader
time	pelvis_tilt	pelvis_list	pelvis_rotation	pelvis_tx	pelvis_ty	pelvis_tz	hip_flexion_r	hip_adduction_r	hip_rotation_r	knee_angle_r	knee_angle_r_beta	ankle_angle_r	hip_flexion_l	hip_adduction_l	hip_rotation_l	knee_angle_l	knee_angle_l_beta	ankle_angle_l
     13.22666667	    -12.15396828	      2.81500771	      6.51287127	      2.29146652	      1.00446331	      1.02300687	    -12.76049526	     -2.94165836	    -14.51420264	     60.64941818	      1.05853204	    -15.61118422	     37.67077875	      7.94488476	     -6.56347828	     12.13936224	      0.21187184	      3.13754163
     13.23333333	    -12.05065844	      2.45574575	      6.79496894	      2.28980139	      1.00078888	      1.02302675	    -11.00438554	     -2.27960452	    -13.38175690	     65.86690865	      1.14959442	    -15.58142943	     37.74891057	      7.74140583	     -6.28751002	     13.70698138	      0.23923196	      2.60781772
     13.24000000	    -11.85088145	      2.29996812	      7.10038218	      2.28790279	      0.99691686	      1.02329726	     -9.28933636	     -1.84369605	    -12.58004443	     71.01473426	      1.23944093	    -15.55918609	     37.91078793	      7.61197822	     -6.33765288	     16.10808358	      0.28113909	      2.25368509
     13.24666667	    -11.74298281	      2.22646705	      7.50525600	      2.28576843	      0.99248988	      1.02360896	     -7.43292352	     -1.57172657	    -12.14257014	     76.05682801	      1.32744207	    -15.41595379	     38.35846810	      7.52418014	     -6.46019445	     19.27664120	      0.33644086	      2.09985957
     13.25333333	    -11.58444572	      2.22658615	      7.93597523	      2.28346021	      0.98766952	      1.02403452	     -5.59670214	     -1.46656465	    -11.95136315	     80.94697986	      1.41279132	    -15.11630750	     38.85401353	      7.42760245	     -6.61088890	     22.97322925	      0.40095849	      2.20834312
     13.26000000	    -11.47783632	      2.28139302	      8.37846178	      2.28108300	      0.98250228	      1.02448122	     -3.66964664	     -1.53796122	    -11.94046131	     85.64428258	      1.49477472	    -14.64240106	     39.38928310	      7.35245268	     -6.67070346	     26.92238344	      0.46988423	      2.63678137
     13.26666667	    -11.39841479	      2.40009083	      8.82566588	      2.27867709	      0.97715458	      1.02485530	     -1.68416949	     -1.80677257	    -12.04081992	     90.11423714	      1.57279014	    -13.99526465	     39.85339178	      7.34028419	     -6.58180561	     30.90732342	      0.53943456	      3.42754153
     13.27333333	    -11.30679723	      2.58000926	      9.23396876	      2.27624785	      0.97193028	      1.02515694	      0.33820146	     -2.26384473	    -12.16656389	     94.33380340	      1.64643547	    -13.18791246	     40.12102293	      7.39126304	     -6.35164597	     34.71993547	      0.60597719	      4.60414664
     13.28000000	    -11.40153483	      2.76770401	      9.59109984	      2.27378396	      0.96677692	      1.02531613	      2.65551311	     -2.87213166	    -12.22263173	     98.28841509	      1.71545646	    -12.34238282	     40.36578406	      7.50182508	     -5.98391022	     38.24426677	      0.66748838	      6.12223146
     13.28666667	    -10.91235565	      3.35734556	      9.95810816	      2.27162052	      0.96303480	      1.02522981	      4.26477902	     -3.97601133	    -12.31581180	    101.83469083	      1.77735065	    -11.39409106	     39.53909908	      7.96195377	     -5.63522139	     41.13754971	      0.71798569	      7.97466211
     13.29333333	    -11.74585910	      3.28926465	     10.08721805	      2.26886720	      0.95800079	      1.02529050	      7.76628415	     -4.56227272	    -11.97560644	    105.27205241	      1.83734392	    -10.51618173	     40.14350056	      7.91404525	     -5.11540183	     43.95327138	      0.76712930	     10.01256507
     13.30000000	    -11.22964176	      3.78796908	     10.32046158	      2.26667314	      0.95569318	      1.02501163	      9.63225194	     -5.69262976	    -11.79688469	    108.07826051	      1.88632150	     -9.85440844	     38.75371906	      8.32011438	     -4.59074180	     45.97035390	      0.80233403	     12.14955481
     13.30666667	    -12.09290157	      3.93591461	     10.13140088	      2.26426206	      0.95232980	      1.02519090	     13.43518797	     -6.50493916	    -10.92419545	    110.76669964	      1.93324361	     -8.89808061	     38.63489204	      8.31060094	     -4.43787113	     47.55977594	      0.83007468	     14.40478511
     13.31333333	    -11.80829701	      4.14151964	     10.21690505	      2.26238960	      0.95125273	      1.02484895	     15.84971605	     -7.36732173	    -10.52084017	    112.71186832	      1.96719321	     -8.31604470	     36.93477688	      8.44473826	     -3.85381119	     48.61064706	      0.84841584	     16.76244415
     13.32000000	    -12.64624368	      4.24194922	      9.78646612	      2.26030741	      0.94959166	      1.02511216	     19.92072991	     -7.99683617	     -9.32543087	    114.48996304	      1.99822682	     -7.76113877	     36.17955237	      8.30138763	     -3.82495026	     49.12496302	      0.85739235	     18.64695827
     13.32666667	    -12.81295432	      4.27650049	      9.52459181	      2.25878470	      0.94945256	      1.02512920	     23.14025571	     -8.46220805	     -8.47495718	    115.60533138	      2.01769367	     -7.27958040	     34.43850064	      8.13134315	     -3.55842255	     49.21085450	      0.85889144	     20.45351626
     13.33333333	    -12.79354280	      4.27462329	      9.14912380	      2.25770200	      0.95029920	      1.02523985	     26.14920732	     -8.73820745	     -7.60244896	    116.19884590	      2.02805245	     -6.80862489	     32.22204086	      7.84981404	     -3.38781049	     48.79682061	      0.85166518	     21.92601544
     13.34000000	    -12.78000984	      4.16016894	      8.73167125	      2.25696644	      0.95169696	      1.02529980	     29.11591172	     -8.79474457	     -6.80964425	    116.30709519	      2.02994175	     -6.34495358	     29.82535523	      7.45567591	     -3.24688200	     48.02027696	      0.83811194	     23.00219747
     13.34666667	    -12.81384372	      3.66952556	      8.63602120	      2.25659185	      0.95361393	      1.02490991	     31.89938754	     -8.58434311	     -6.62594486	    115.83607750	      2.02172094	     -5.81137950	     27.40134172	      6.88026615	     -2.66449465	     47.02302306	      0.82070658	     23.56838614
     13.35333333	    -12.75342307	      3.59901629	      7.78278744	      2.25671199	      0.95602072	      1.02529939	     34.67390269	     -8.28346406	     -5.60144658	    115.11794237	      2.00918712	     -5.25996895	     24.56195783	      6.32092971	     -3.14289223	     45.48903656	      0.79393346	     23.82631809
     13.36000000	    -12.91818422	      3.02752251	      7.50006058	      2.25709808	      0.95866587	      1.02488456	     37.30574537	     -7.79216880	     -5.48568267	    113.81678146	      1.98647758	     -4.59006455	     22.01288773	      5.60414103	     -2.85694442	     43.90194643	      0.76623351	     23.42302069
